<svg width="282" height="282" viewBox="0 0 282 282" fill="none" xmlns="http://www.w3.org/2000/svg">
<path d="M141 282C218.872 282 282 218.872 282 141C282 63.1278 218.872 0 141 0C63.1278 0 0 63.1278 0 141C0 218.872 63.1278 282 141 282Z" fill="black"/>
<path d="M145.86 10.6494L148.713 10.9211L147.353 27.6272L157.133 28.442L156.998 30.8868L144.366 29.8003L145.86 10.6494Z" fill="white"/>
<path d="M162.566 22.1948C164.061 16.2187 167.32 12.959 172.346 14.3172C177.371 15.5395 178.729 19.75 177.236 25.7262C175.741 31.7023 172.481 34.8262 167.456 33.6039C162.566 32.2456 161.208 28.0352 162.566 22.1948ZM174.519 24.9112C175.333 21.7874 175.876 17.577 171.803 16.4903C167.728 15.5395 166.233 19.4783 165.554 22.7381C164.74 25.862 164.196 30.0725 168.271 31.1591C172.21 32.1098 173.704 28.0352 174.519 24.9112Z" fill="white"/>
<path d="M184.298 17.8481L187.014 19.0706L186.199 29.9362L185.521 36.3199L189.594 31.4304L196.794 23.1452L199.509 24.2318L185.791 39.3079L182.939 38.0856L184.298 17.8481Z" fill="white"/>
<path d="M205.079 27.356L215.672 34.0112L214.45 36.0485L206.301 30.8873L203.177 35.7769L210.239 40.259L209.017 42.2963L201.954 37.8142L198.694 42.9754L206.844 48.1367L205.622 50.174L195.027 43.5186L205.079 27.356Z" fill="white"/>
<path d="M227.625 59.6804C232.65 55.4699 234.687 56.0131 235.91 57.5072C236.725 58.4579 236.86 59.5445 236.317 60.767L237.404 59.8162L238.898 61.5819L230.477 68.6446C229.39 69.5954 229.39 70.4102 230.07 71.2252C230.749 72.0402 231.563 72.0402 232.65 71.2252L240.12 64.9774C243.108 62.5327 244.467 60.3595 241.75 57.2356C239.848 54.9266 238.083 54.7908 236.59 56.0131L234.96 54.1116C236.59 52.7535 239.985 51.667 243.652 56.0131C248.27 61.446 244.33 64.8416 241.75 67.0148L234.28 73.1267C231.563 75.4358 229.39 73.9417 228.304 72.7192C226.81 70.9536 227.217 69.4596 227.897 68.6446C226.267 69.0521 225.044 68.7804 223.957 67.5581C222.735 65.7923 222.735 63.755 227.625 59.6804ZM228.168 67.2864L235.095 61.446C235.367 60.767 235.23 59.952 234.823 59.2729C234.008 58.3222 233.057 58.5939 229.39 61.5819C225.723 64.57 225.315 65.5208 226.13 66.4714C226.538 67.2864 227.353 67.5581 228.168 67.2864Z" fill="white"/>
<path d="M260.223 87.5244L264.84 99.2051L262.531 100.156L258.863 91.0558L252.888 93.3648L256.011 101.378L253.838 102.329L250.715 94.3155L243.38 97.3036L242.293 94.723L260.223 87.5244Z" fill="white"/>
<path d="M250.85 110.75L251.801 115.368L265.791 112.244L264.84 107.626L267.148 107.083L269.73 118.9L267.421 119.443L266.47 114.961L252.48 118.085L253.431 122.567L251.122 123.11L248.542 111.294L250.85 110.75Z" fill="white"/>
<path d="M270.953 127.456L271.223 132.345C271.495 137.235 269.593 140.359 265.926 140.63C262.803 140.766 260.765 139.001 259.95 136.42L252.752 142.803L252.48 139.272L259.271 133.568L259.135 130.987L252.073 131.394L251.937 128.542L270.953 127.456ZM261.445 130.851L261.58 133.024C261.853 136.556 263.346 137.914 265.519 137.778C267.693 137.642 269.051 136.148 268.915 132.617L268.778 130.444L261.445 130.851Z" fill="white"/>
<path d="M258.048 145.791L257.778 148.508C255.605 148.373 254.246 149.731 253.975 152.583C253.703 155.164 254.518 156.929 256.555 157.066C258.048 157.201 258.863 156.251 259.543 154.621L261.445 150.681C262.531 148.508 264.161 146.743 266.878 147.014C270.273 147.286 271.768 150.41 271.36 154.213C270.953 158.016 268.915 160.596 264.976 160.189L265.248 157.473C267.963 157.609 268.778 155.706 268.915 153.941C269.186 151.496 268.236 150.003 266.606 149.866C265.383 149.731 264.433 150.546 263.753 152.04L261.853 155.979C260.493 158.966 259 160.189 256.42 159.918C252.48 159.511 251.122 156.251 251.53 152.311C251.937 147.966 254.246 145.385 258.048 145.791Z" fill="white"/>
<path d="M265.383 172.549L267.013 166.301L269.323 166.979L265.248 182.192L262.938 181.514L264.568 175.265L248.405 171.054L249.085 168.339L265.383 172.549Z" fill="white"/>
<path d="M253.838 207.184L250.578 212.209C248.405 215.604 245.145 216.962 242.43 215.062C240.8 213.975 240.256 212.48 240.663 210.579C239.305 211.665 237.132 212.48 235.095 211.122C232.243 209.357 232.107 205.689 234.28 202.294L237.812 196.861L253.838 207.184ZM238.355 200.392L236.317 203.38C234.687 205.961 235.23 207.727 236.725 208.677C238.355 209.764 239.985 209.22 241.615 206.64L243.515 203.652L238.355 200.392ZM245.418 205.146L243.923 207.455C242.293 209.9 242.293 211.53 243.923 212.617C245.418 213.567 247.048 213.295 248.678 210.715L250.307 208.27L245.418 205.146Z" fill="white"/>
<path d="M229.662 213.024L226.538 216.555L237.132 226.198L240.257 222.667L242.022 224.297L233.872 233.262L232.107 231.632L235.23 228.235L224.637 218.592L221.512 221.987L219.747 220.357L227.897 211.394L229.662 213.024Z" fill="white"/>
<path d="M222.6 240.188L227.625 236.113L229.119 238.015L216.895 247.93L215.401 246.028L220.427 241.953L209.969 228.915L212.142 227.149L222.6 240.188Z" fill="white"/>
<path d="M211.191 251.598L200.324 257.845L199.103 255.808L207.524 251.055L204.671 246.028L197.337 250.24L196.114 248.202L203.449 243.992L200.461 238.695L192.039 243.448L190.818 241.41L201.684 235.163L211.191 251.598Z" fill="white"/>
<path d="M174.791 264.093C175.469 267.488 173.839 269.39 171.666 269.798C169.901 270.205 167.728 269.39 166.776 267.353C166.641 269.526 165.011 271.156 163.246 271.563C161.208 271.971 158.899 270.884 158.22 267.488C157.405 263.413 158.899 256.758 163.381 250.783C170.036 254.45 173.976 260.018 174.791 264.093Z" fill="white"/>
<path d="M132.142 271.698L129.29 271.428L131.191 254.857L121.412 253.77L121.684 251.325L134.179 252.82L132.142 271.698Z" fill="white"/>
<path d="M115.572 259.746C113.942 265.723 110.547 268.711 105.521 267.353C100.632 265.994 99.2736 261.784 101.039 255.808C102.669 249.831 106.065 246.843 111.09 248.201C115.98 249.56 117.202 253.906 115.572 259.746ZM103.891 256.486C103.077 259.611 102.262 263.821 106.336 264.908C110.411 265.994 111.905 262.056 112.856 258.931C113.671 255.808 114.486 251.598 110.411 250.511C106.336 249.423 104.706 253.498 103.891 256.486Z" fill="white"/>
<path d="M93.8407 263.278L91.1242 262.056L92.3467 251.19L93.1615 244.806L88.9511 249.56L81.4809 257.573L78.7644 256.351L92.89 241.818L95.7422 243.176L93.8407 263.278Z" fill="white"/>
<path d="M73.3314 253.091L63.0091 246.163L64.3672 244.127L72.3808 249.56L75.6404 244.805L68.7135 240.188L70.0718 238.15L76.9987 242.768L80.3943 237.607L72.3808 232.175L73.7389 230.137L83.9256 237.2L73.3314 253.091Z" fill="white"/>
<path d="M51.8715 220.085C46.7103 224.16 44.673 223.482 43.5864 221.987C42.7715 220.9 42.6356 219.95 43.3148 218.592L42.2282 219.543L40.87 217.777L49.5625 210.987C50.6492 210.172 50.785 209.22 50.1059 208.405C49.4267 207.59 48.6119 207.455 47.5252 208.405L39.7834 214.382C36.6594 216.827 35.3013 218.864 37.8819 221.987C39.7834 224.432 41.549 224.568 43.0431 223.345L44.5371 225.383C42.7715 226.741 39.5117 227.692 35.9804 223.21C31.6341 217.642 35.7087 214.382 38.1535 212.344L45.7596 206.367C48.6119 204.195 50.6492 205.689 51.7357 207.047C53.094 208.812 52.6865 210.307 52.0073 211.122C53.6373 210.85 54.8596 211.122 55.8103 212.344C56.8969 214.11 56.8969 216.012 51.8715 220.085ZM51.5999 212.344L44.5371 217.913C44.2655 218.592 44.2656 219.407 44.8088 220.085C45.6237 221.037 46.5744 220.9 50.2417 217.913C53.9088 214.925 54.4521 214.11 53.6373 213.159C53.094 212.48 52.279 212.208 51.5999 212.344Z" fill="white"/>
<path d="M20.2252 191.156L16.0146 179.204L18.3237 178.389L21.5833 187.624L27.5594 185.452L24.7073 177.302L27.0162 176.487L29.8685 184.637L37.3386 181.921L38.2894 184.637L20.2252 191.156Z" fill="white"/>
<path d="M30.2759 168.339L29.461 163.721L15.3354 166.301L16.1504 170.919L13.8415 171.326L11.6683 159.374L13.9773 158.966L14.7922 163.584L28.9177 161.004L28.1027 156.386L30.4117 155.979L32.5848 167.931L30.2759 168.339Z" fill="white"/>
<path d="M10.7176 150.953L10.5818 145.928C10.446 141.038 12.3475 137.914 16.1504 137.778C19.2744 137.642 21.3117 139.544 21.9908 142.261L29.461 136.148L29.5969 139.68L22.67 145.248L22.8058 147.829L29.8685 147.693L30.0042 150.546L10.7176 150.953ZM20.361 147.829V145.656C20.2252 141.989 18.7312 140.766 16.5579 140.766C14.3848 140.766 13.0266 142.261 13.0266 145.791V147.966L20.361 147.829Z" fill="white"/>
<path d="M24.1639 133.025L24.5714 130.309C26.7445 130.444 28.2385 129.222 28.5102 126.37C28.7818 123.789 28.1027 122.023 26.2012 121.752C24.7071 121.616 23.8922 122.431 23.0773 124.061L21.04 128C19.9533 130.173 18.1877 131.938 15.4712 131.531C12.0757 131.123 10.7175 127.864 11.125 124.197C11.6683 120.394 13.8414 117.949 17.7802 118.356L17.3728 121.073C14.6564 120.801 13.8414 122.703 13.5698 124.604C13.2981 127.049 14.2489 128.543 15.7429 128.679C16.9653 128.815 17.916 128.135 18.731 126.641L20.7683 122.703C22.2623 119.714 23.7564 118.492 26.337 118.9C30.2758 119.443 31.4983 122.703 30.955 126.641C30.4117 130.988 27.9669 133.568 24.1639 133.025Z" fill="white"/>
<path d="M17.7801 105.996L16.0145 112.244L13.7055 111.565L18.1876 96.4888L20.4966 97.168L18.5951 103.416L34.622 108.169L33.8072 110.886L17.7801 105.996Z" fill="white"/>
<path d="M30.4117 71.7693L33.8073 66.8797C36.1163 63.4842 39.3759 62.3976 42.0924 64.1634C43.7223 65.2499 44.1297 66.8797 43.7223 68.6455C45.0805 67.5589 47.2536 66.8797 49.2909 68.3738C52.0074 70.2753 52.1432 73.9424 49.8342 77.338L46.0313 82.7708L30.4117 71.7693ZM38.6969 74.0783L40.3267 71.7693C41.9565 69.4603 42.0924 67.8305 40.4625 66.6082C39.1044 65.6574 37.3386 65.7932 35.7088 68.238L34.0788 70.6828L38.6969 74.0783ZM45.7596 78.9679L47.7969 75.9799C49.5626 73.3991 49.0193 71.6335 47.6611 70.6828C46.1671 69.5962 44.4013 70.1395 42.7715 72.4484L40.7342 75.5724L45.7596 78.9679Z" fill="white"/>
<path d="M54.8597 66.7443L58.1195 63.3488L47.797 53.4338L44.5372 56.8293L42.7716 55.1995L51.1926 46.3711L52.9582 48.0009L49.6985 51.3965L60.021 61.3115L63.2807 57.9159L65.0464 59.5458L56.6255 68.3743L54.8597 66.7443Z" fill="white"/>
<path d="M62.7372 39.8507L57.5759 43.7895L56.0819 41.888L68.7134 32.3804L70.2074 34.2819L65.0461 38.2207L75.097 51.5313L72.788 53.1611L62.7372 39.8507Z" fill="white"/>
<path d="M74.5537 28.849L85.5553 23.0088L86.6418 25.1819L78.0851 29.664L80.8016 34.8252L88.2718 30.8865L89.3583 33.0596L81.8881 36.9984L84.7404 42.4313L93.2972 37.9492L94.3837 40.1222L83.518 45.6909L74.5537 28.849Z" fill="white"/>
<path d="M111.226 17.4403C110.682 14.0448 112.448 12.1433 114.485 11.8717C116.251 11.6 118.424 12.415 119.239 14.4522C119.375 12.2791 121.141 10.7851 122.906 10.3776C124.944 9.97015 127.253 11.1926 127.796 14.588C128.475 18.6628 126.709 25.318 122.091 31.1584C115.708 27.2195 111.905 21.5149 111.226 17.4403Z" fill="white"/>
</svg>
