<?xml version="1.0" standalone="no"?>
<!DOCTYPE svg PUBLIC "-//W3C//DTD SVG 20010904//EN"
 "http://www.w3.org/TR/2001/REC-SVG-20010904/DTD/svg10.dtd">
<svg version="1.0" xmlns="http://www.w3.org/2000/svg"
 width="1272.000000pt" height="1272.000000pt" viewBox="0 0 1272.000000 1272.000000"
 preserveAspectRatio="xMidYMid meet">
<metadata>
Created by potrace 1.14, written by Peter Selinger 2001-2017
</metadata>
<g transform="translate(0.000000,1272.000000) scale(0.100000,-0.100000)"
fill="#000000" stroke="none">
<path d="M8128 12685 c-2 -2 -21 -6 -43 -9 -86 -13 -122 -25 -185 -62 -74 -44
-112 -85 -158 -174 -34 -66 -43 -87 -57 -135 -2 -5 -10 -30 -18 -55 -9 -25
-18 -56 -21 -70 -3 -14 -15 -65 -26 -115 -11 -49 -22 -103 -25 -120 -3 -16
-12 -57 -20 -90 -7 -33 -16 -80 -20 -105 -3 -25 -11 -63 -17 -85 -5 -22 -12
-48 -14 -57 -2 -10 -6 -28 -9 -40 -3 -13 -7 -36 -10 -53 -3 -16 -8 -41 -10
-55 -19 -92 -33 -306 -40 -585 -12 -477 -15 -590 -20 -760 -3 -99 -7 -236 -10
-305 -2 -69 -7 -246 -10 -395 -6 -250 -8 -304 -19 -485 -25 -389 -26 -840 -1
-880 5 -8 32 -176 41 -250 4 -36 8 -131 8 -212 -1 -82 2 -148 5 -149 3 -1 17
-2 31 -3 101 -10 160 -18 203 -27 27 -6 54 -12 60 -13 7 -1 18 -5 25 -9 6 -5
12 -6 12 -3 0 7 64 -16 142 -53 111 -52 208 -137 393 -346 14 -16 36 -41 49
-55 12 -14 68 -81 123 -150 140 -173 275 -320 294 -320 4 0 6 9 4 21 -4 20
-10 107 -20 274 -3 44 -7 107 -10 139 -26 333 -26 671 1 1191 2 44 6 159 9
255 4 158 7 218 21 345 4 35 11 299 15 561 1 50 -1 96 -5 103 -4 6 -2 11 4 11
6 0 9 4 5 9 -3 6 -8 85 -10 178 -7 210 -14 408 -15 408 0 0 -3 50 -5 110 -10
277 -20 412 -36 522 -5 40 -12 94 -14 120 -2 26 -7 77 -11 113 -4 36 -8 82 -8
102 -1 21 -3 38 -6 38 -3 0 -5 17 -6 38 -1 20 -4 114 -9 207 -4 94 -7 176 -6
183 1 6 1 18 2 25 1 35 -12 606 -15 632 -12 104 -20 148 -37 215 -20 79 -77
223 -91 228 -4 2 -8 8 -8 14 0 13 -65 96 -94 121 -23 19 -67 41 -106 53 -23 7
-196 14 -202 9z"/>
<path d="M3337 11074 c-1 -1 -18 -5 -38 -8 -107 -17 -181 -85 -233 -216 -10
-25 -20 -53 -22 -62 -19 -82 -23 -110 -29 -173 -3 -33 -8 -89 -11 -125 -4 -36
-8 -81 -10 -100 -1 -19 -3 -35 -4 -35 -3 0 -10 -93 -14 -170 -5 -109 -16 -289
-21 -350 -30 -387 -33 -805 -10 -1400 9 -209 12 -280 20 -390 3 -44 7 -107 9
-140 2 -33 7 -103 11 -155 4 -52 9 -111 10 -130 1 -19 3 -35 4 -35 1 0 4 -34
6 -75 4 -86 12 -183 21 -255 3 -27 7 -63 9 -80 1 -16 6 -57 10 -90 11 -92 20
-212 30 -410 2 -44 6 -123 10 -175 7 -119 20 -496 30 -875 7 -246 14 -348 30
-435 3 -14 7 -45 10 -69 3 -23 7 -46 9 -50 2 -3 7 -26 11 -49 5 -32 68 -286
100 -402 12 -45 85 -282 100 -325 10 -27 18 -54 20 -60 1 -5 8 -23 14 -40 7
-16 14 -37 16 -46 4 -21 122 -335 140 -376 8 -17 15 -34 15 -38 0 -3 9 -25 19
-48 23 -50 119 -277 126 -297 1 -3 4 -12 8 -20 20 -53 118 -333 121 -345 1 -5
9 -30 18 -55 9 -25 35 -97 58 -160 22 -63 43 -122 47 -130 3 -8 7 -19 8 -25 3
-10 118 -309 135 -350 4 -11 48 -128 96 -260 72 -199 188 -491 250 -632 8 -17
30 -73 49 -125 20 -51 40 -102 44 -113 5 -11 14 -36 21 -55 7 -19 16 -44 21
-55 4 -11 36 -94 69 -185 33 -91 64 -174 69 -185 5 -11 19 -47 31 -80 11 -33
25 -69 30 -80 14 -31 91 -238 94 -253 4 -19 24 -35 48 -39 45 -5 134 -14 183
-18 28 -2 50 -5 50 -5 0 -1 18 -3 40 -5 22 -2 69 -6 104 -9 35 -3 100 -8 145
-11 44 -3 104 -8 131 -10 54 -5 172 -13 300 -20 44 -2 80 -5 80 -6 0 0 25 -2
55 -4 92 -4 272 -15 335 -20 53 -5 117 -8 355 -20 36 -1 115 -6 175 -9 199
-11 481 -25 635 -31 63 -2 167 -7 230 -10 271 -13 828 -20 838 -11 2 3 4 27 3
53 -2 118 -1 214 5 283 8 114 10 128 29 225 22 116 22 118 30 195 3 36 12 88
20 115 8 28 17 66 19 85 3 19 5 35 6 35 2 0 7 26 14 75 4 25 12 69 17 99 6 30
12 64 14 75 4 30 18 104 30 159 3 12 8 36 11 52 3 17 11 51 19 77 8 27 12 48
10 48 -3 0 0 11 5 25 5 14 12 36 14 48 9 43 14 63 26 107 7 25 14 56 16 70 3
14 7 33 10 42 3 9 7 25 9 35 2 10 15 70 30 133 15 63 28 124 30 135 5 29 68
268 108 415 31 109 87 311 117 420 5 19 9 37 9 40 0 15 258 720 290 795 13 29
37 103 40 118 0 4 7 20 15 35 14 28 62 186 101 334 22 83 30 123 41 213 3 22
7 51 10 65 14 72 24 414 13 477 -13 83 -17 101 -27 120 -6 10 -10 21 -11 26
-2 22 -15 65 -26 87 -7 14 -23 48 -36 75 -13 28 -27 52 -31 53 -5 2 -8 8 -8
12 0 59 -408 482 -565 585 -165 109 -276 196 -369 288 -116 117 -145 150 -310
357 -42 52 -91 113 -109 134 -51 63 -157 167 -227 225 -36 30 -67 57 -70 60
-3 4 -16 12 -30 19 -14 7 -49 26 -78 42 -30 16 -72 34 -95 40 -23 6 -49 14
-57 17 -25 10 -112 19 -275 28 -49 3 -130 7 -180 10 -49 3 -135 8 -190 10 -55
3 -118 7 -140 9 -22 3 -74 8 -115 11 -41 4 -78 9 -81 11 -4 2 -24 6 -45 10
-22 3 -48 7 -60 9 -17 2 -25 -9 -49 -74 -16 -42 -32 -80 -35 -86 -6 -8 -16
-40 -25 -75 -4 -19 -40 -81 -52 -91 -15 -13 -109 -20 -128 -10 -5 3 -19 7 -30
8 -80 12 -221 52 -315 90 -8 4 -17 7 -20 7 -11 2 -128 51 -188 78 -34 15 -65
28 -67 28 -5 0 -113 51 -255 119 -30 14 -56 29 -58 34 -2 4 -7 7 -12 7 -4 0
-55 26 -113 59 l-105 59 -30 -32 c-102 -109 -153 -260 -113 -335 5 -9 9 -19
10 -24 0 -13 60 -121 84 -151 29 -37 222 -233 267 -272 103 -87 331 -254 347
-254 4 0 14 -6 22 -14 28 -24 184 -99 306 -148 28 -11 61 -25 75 -31 14 -5 30
-11 35 -13 6 -2 62 -22 125 -44 95 -34 355 -116 395 -125 5 -1 17 -5 25 -8 8
-4 40 -13 70 -21 88 -23 262 -101 302 -136 9 -8 34 -28 56 -45 35 -27 103
-106 142 -165 8 -13 25 -35 38 -50 12 -15 22 -31 22 -34 0 -3 12 -20 28 -38
64 -73 120 -135 162 -178 88 -91 177 -209 249 -329 14 -25 44 -64 66 -87 22
-24 78 -84 124 -134 71 -77 200 -180 224 -180 5 0 13 -5 20 -10 15 -13 187
-120 193 -120 2 0 15 -10 29 -22 49 -42 21 -91 -55 -97 -34 -2 -67 12 -185 79
-123 69 -184 105 -220 128 -41 26 -315 299 -315 313 0 4 -6 14 -12 21 -7 7
-22 29 -32 48 -25 46 -113 176 -134 199 -9 10 -38 43 -64 72 -72 83 -158 172
-161 168 -5 -8 -79 -233 -83 -252 -10 -57 -91 -193 -148 -251 -84 -87 -124
-115 -265 -186 -29 -14 -132 -50 -161 -55 -14 -3 -36 -7 -50 -11 -32 -7 -242
-13 -253 -7 -5 3 -31 7 -57 8 -45 3 -79 11 -155 37 -39 13 -73 11 -110 -6 -41
-20 -235 -96 -260 -103 -11 -2 -27 -6 -35 -7 -9 -1 -20 -5 -25 -8 -15 -9 -122
-22 -180 -21 -209 1 -391 71 -526 203 -78 76 -159 177 -159 198 0 7 -4 12 -9
12 -5 0 -11 8 -14 17 -3 10 -24 50 -46 88 -69 118 -111 213 -166 380 -44 132
-72 223 -80 255 0 3 -16 52 -34 110 -18 58 -34 112 -36 120 -2 8 -8 29 -15 45
-6 17 -11 31 -11 32 1 3 -2 12 -23 82 -9 30 -19 71 -22 93 -4 21 -11 38 -17
38 -6 0 -8 3 -5 6 3 3 0 31 -8 63 -15 65 -23 102 -30 146 -3 17 -19 89 -36
160 -16 72 -31 139 -33 150 -6 35 -16 79 -20 95 -3 8 -7 33 -11 55 -3 22 -8
43 -10 46 -4 7 -14 63 -19 104 -1 17 -6 55 -9 85 -4 30 -9 78 -12 105 -3 28
-7 64 -10 80 -6 45 -6 336 1 365 3 14 7 39 10 55 13 88 44 167 103 267 36 61
36 63 8 188 -11 49 -58 275 -62 300 -2 14 -7 39 -11 55 -4 17 -7 35 -8 40 -1
9 -21 129 -31 185 -14 75 -25 139 -30 170 -2 19 -7 46 -10 60 -2 14 -7 36 -9
50 -3 14 -7 36 -10 50 -3 14 -8 45 -11 70 -3 25 -8 54 -10 65 -4 20 -9 49 -19
120 -3 19 -7 50 -10 68 -4 31 -9 70 -20 172 -3 28 -7 64 -10 80 -3 17 -7 53
-10 80 -4 28 -8 61 -11 75 -2 14 -7 43 -10 65 -3 22 -7 54 -10 70 -2 17 -7 68
-10 115 -14 250 -25 352 -48 445 -67 276 -105 349 -230 435 -64 43 -120 61
-204 64 -39 1 -73 2 -75 0z"/>
<path d="M6496 8443 c-1 -1 -29 -4 -62 -8 -171 -16 -340 -80 -430 -162 -40
-37 -104 -115 -104 -127 0 -3 -16 -31 -36 -61 -36 -57 -82 -159 -115 -252 -14
-41 -15 -59 -7 -91 10 -38 12 -41 62 -51 28 -5 81 -17 117 -25 36 -8 77 -17
90 -20 13 -3 53 -13 89 -21 36 -9 74 -17 85 -19 11 -3 29 -7 40 -9 22 -6 149
-35 210 -48 43 -9 54 -12 125 -28 56 -12 81 -17 200 -36 52 -9 109 -18 125
-21 17 -2 80 -7 140 -10 61 -3 142 -6 182 -8 l71 -4 1 32 c6 166 6 235 0 256
-4 14 -10 45 -13 70 -3 25 -7 56 -10 70 -3 14 -7 41 -10 60 -10 63 -16 95 -23
120 -3 14 -7 27 -7 30 -12 72 -68 166 -124 207 -20 15 -43 33 -49 40 -48 45
-147 80 -273 97 -118 16 -266 27 -274 19z"/>
<path d="M4687 8193 c-2 -1 -23 -3 -47 -5 -115 -6 -251 -93 -302 -193 -18 -35
-54 -128 -56 -148 -1 -8 -13 -73 -19 -102 -22 -116 -22 -467 1 -504 4 -6 3
-11 -3 -11 -7 0 -7 -8 -2 -23 5 -13 12 -50 15 -82 4 -32 8 -61 10 -64 2 -3 7
-27 10 -54 4 -26 11 -60 17 -75 6 -15 10 -28 9 -30 -1 -1 4 -27 10 -57 6 -30
12 -58 12 -62 0 -5 4 -18 9 -31 8 -21 12 -38 24 -99 3 -16 8 -36 11 -45 7 -22
14 -57 19 -93 3 -16 7 -41 11 -55 17 -73 25 -107 29 -125 9 -43 64 -244 72
-265 3 -8 7 -20 8 -26 2 -6 15 -51 30 -100 49 -164 53 -179 66 -224 15 -55 13
-46 28 -100 35 -128 144 -383 203 -475 7 -10 33 -51 58 -90 76 -120 173 -220
243 -253 144 -68 402 -76 542 -18 19 8 37 16 40 16 3 0 20 7 39 15 20 8 40 15
46 15 5 0 10 5 10 10 0 13 -3 13 -84 -9 -51 -13 -107 -18 -215 -19 -80 0 -150
3 -156 6 -5 3 -21 7 -36 9 -73 8 -213 95 -307 192 -58 60 -129 162 -138 199
-4 12 -10 22 -15 22 -5 0 -9 7 -9 15 0 8 -4 23 -9 33 -76 150 -56 193 104 217
17 2 44 7 60 10 17 4 44 8 60 10 17 2 71 10 120 19 50 8 106 17 125 20 19 3
44 7 55 10 11 2 40 7 65 11 58 9 101 16 120 20 8 2 20 4 25 4 6 1 11 37 11 89
2 128 14 510 19 562 2 25 1 50 -3 56 -10 14 -98 74 -110 74 -6 0 -13 7 -16 16
-4 9 -9 14 -12 11 -4 -3 -15 3 -27 13 -11 11 -39 32 -61 47 -22 16 -48 35 -57
43 -9 8 -36 31 -60 50 -112 89 -276 250 -336 330 -44 58 -93 150 -116 218 -30
88 -13 213 46 335 65 134 146 204 322 278 74 32 230 51 310 39 l41 -6 -11 30
c-16 48 -25 60 -106 143 -122 125 -191 177 -274 202 -22 7 -47 15 -55 18 -25
10 -74 20 -145 29 -48 6 -264 12 -268 7z"/>
<path d="M5409 7645 c-3 -2 -23 -6 -45 -9 -23 -2 -59 -12 -80 -21 -37 -16 -38
-17 -16 -26 12 -4 23 -7 25 -6 1 1 16 -7 32 -18 26 -18 201 -107 215 -110 3
-1 35 -16 72 -33 37 -17 96 -43 130 -58 35 -15 79 -34 98 -42 19 -9 37 -16 40
-17 3 -1 16 -6 30 -12 72 -31 187 -75 201 -78 9 -2 36 -10 60 -18 82 -27 117
-30 127 -10 6 10 10 20 10 23 1 9 14 42 43 114 16 37 29 72 29 76 0 6 -44 20
-112 36 -5 1 -9 2 -10 4 -2 1 -14 4 -28 6 -14 2 -131 32 -260 65 -129 33 -242
61 -250 63 -8 1 -53 14 -100 29 -47 14 -110 29 -140 32 -30 4 -58 9 -61 11 -3
2 -8 2 -10 -1z"/>
<path d="M5794 6178 c0 -29 -5 -100 -10 -158 -10 -121 -11 -645 -2 -736 14
-133 77 -255 165 -324 25 -19 50 -39 57 -45 27 -24 117 -60 191 -75 89 -19
157 -18 312 5 90 13 245 90 314 156 27 26 77 90 79 101 0 4 23 54 50 110 73
154 130 340 125 407 -2 28 -40 93 -88 151 -46 57 -195 135 -293 154 -10 2 -46
11 -80 20 -33 8 -69 17 -80 19 -10 2 -39 9 -64 16 -25 7 -52 15 -60 16 -8 2
-67 22 -130 45 -63 23 -127 45 -141 50 -26 8 -42 14 -141 59 -26 11 -50 21
-53 21 -6 0 -91 37 -117 51 -30 15 -33 11 -34 -43z m426 -413 c25 -2 65 -6 90
-9 25 -2 79 -8 120 -11 41 -4 89 -9 105 -11 17 -2 48 -5 70 -8 87 -9 175 -22
215 -31 8 -2 22 -4 31 -4 9 -1 28 -12 42 -25 29 -27 29 -31 2 -208 -3 -18 -7
-49 -9 -68 -15 -119 -52 -220 -113 -304 -43 -58 -51 -66 -113 -107 -48 -32
-98 -48 -170 -56 -52 -5 -258 -5 -280 0 -8 2 -33 7 -55 12 -66 14 -121 43
-159 85 -72 80 -85 147 -84 428 1 258 6 294 52 316 31 16 34 16 256 1z"/>
<path d="M6085 5640 c-3 -4 -3 -17 0 -28 2 -12 -1 -24 -6 -27 -5 -4 -6 -11 -2
-18 9 -15 10 -97 0 -97 -5 0 -5 -5 -2 -10 4 -6 8 -75 9 -153 4 -166 16 -205
72 -232 79 -37 288 -39 369 -3 38 16 95 59 95 70 0 5 9 19 20 31 23 24 55 118
64 192 4 28 11 66 16 85 5 19 11 54 14 77 6 47 6 47 -84 58 -30 4 -62 9 -71
10 -29 6 -168 22 -249 29 -30 3 -84 8 -120 12 -110 10 -121 10 -125 4z"/>
<path d="M5589 5466 c-3 -4 -53 -11 -154 -22 -16 -1 -39 -5 -50 -7 -22 -5
-102 -17 -150 -22 -16 -2 -43 -6 -60 -9 -16 -4 -50 -9 -75 -12 -24 -3 -52 -10
-62 -15 -17 -9 -17 -12 7 -55 44 -79 144 -210 221 -288 21 -23 88 -57 142 -74
33 -11 228 -14 289 -5 l31 5 -39 61 c-59 90 -70 144 -83 375 -4 61 -8 77 -17
68z"/>
</g>
</svg>
