<svg width="200" height="207" viewBox="0 0 200 207" fill="none" xmlns="http://www.w3.org/2000/svg">
<path d="M74.3283 109.616C74.1919 109.146 73.993 108.696 73.7371 108.279C73.4835 107.798 73.3686 107.256 73.4052 106.714C73.4052 106.33 73.5711 106.06 73.1977 105.822C72.9694 105.71 72.7294 105.623 72.482 105.563L68.6235 104.36C69.1094 106.105 70.0762 107.679 71.4137 108.901C72.2424 110.248 73.1863 111.521 74.235 112.705C74.0687 112.34 73.977 111.945 73.9653 111.544C73.9445 110.922 74.4217 110.269 74.3283 109.616Z" fill="white"/>
<path d="M68.4576 103.075C69.972 103.541 71.4967 103.998 73.0007 104.485C73.5338 104.602 74.0142 104.89 74.3699 105.304C74.764 105.864 74.5358 106.34 74.5669 107.014C74.5669 108.051 75.5004 108.756 75.5108 109.782C75.5108 110.404 75.1167 110.943 75.1374 111.555C75.2223 112.118 75.4509 112.65 75.8012 113.099C77.136 114.924 79.0239 116.269 81.1845 116.935C83.7788 117.753 86.4822 118.172 89.2023 118.179C89.7461 118.223 90.2922 118.131 90.7918 117.912C91.2914 117.693 91.7289 117.354 92.0651 116.925C92.5599 116.257 92.9386 115.51 93.1853 114.717C91.8294 113.933 90.6723 112.847 89.8039 111.544C88.6007 109.886 87.4909 108.175 86.3396 106.486C85.8633 105.599 85.2664 104.783 84.5659 104.06C83.7825 103.573 82.9126 103.243 82.0039 103.085C81.1174 102.867 80.216 102.715 79.3071 102.629C78.5499 102.557 77.7824 102.629 77.0355 102.443C76.4591 102.36 75.9319 102.072 75.5507 101.632C75.1696 101.193 74.9602 100.63 74.9611 100.048C74.9611 98.9075 75.6145 97.8605 75.6457 96.7305C75.6457 96.0464 75.21 95.8805 74.8366 95.3725C74.3491 94.7091 74.7121 94.0249 74.7225 93.2992C74.6366 92.3757 74.4946 91.4583 74.2972 90.5521C74.2039 89.7849 74.1728 88.9971 74.152 88.2196C74.152 85.1096 74.5047 81.7612 72.6895 79.0451C72.2643 78.4024 73.3119 77.8012 73.7268 78.4439C75.7079 81.3984 75.2826 85.0474 75.3552 88.4165C75.3621 89.2705 75.4314 90.1229 75.5627 90.9667C75.7416 91.7337 75.8596 92.5136 75.9153 93.2992C75.9153 93.745 75.6353 94.4292 75.9153 94.7816C76.1954 95.1341 76.351 95.1652 76.5169 95.4244C76.7651 95.8209 76.8846 96.2843 76.8592 96.7513C76.8592 97.8501 76.2472 98.8246 76.185 99.9442C76.0917 101.53 78.0106 101.344 79.1411 101.437C80.9171 101.563 82.6647 101.951 84.3273 102.588C86.0284 103.261 86.8478 104.993 87.8228 106.423C88.7978 107.854 89.8351 109.44 90.9345 110.902C91.7726 112.211 92.9575 113.262 94.3574 113.939C94.4715 114.005 94.5608 114.107 94.6114 114.229C94.662 114.35 94.6712 114.485 94.6375 114.613C93.9736 116.852 92.646 119.195 90.0218 119.402C88.5606 119.449 87.0983 119.355 85.655 119.122C84.3043 118.982 82.9682 118.725 81.6616 118.355C81.2156 118.22 80.7696 118.065 80.334 117.899C82.2901 119.135 84.3773 120.15 86.5574 120.926C94.2848 123.715 103.983 122.377 110.943 118.096C116.892 114.378 121.517 108.878 124.157 102.38H124.022L123.203 102.277C122.95 102.26 122.706 102.178 122.495 102.038C122.284 101.898 122.113 101.705 122 101.478C121.591 100.944 121.302 100.327 121.153 99.6702C121.005 99.0136 121 98.3326 121.139 97.6739C121.823 95.528 124.136 94.6676 125.993 93.745C126.108 93.6853 126.239 93.6635 126.367 93.6828C126.711 90.3881 126.476 87.0585 125.672 83.8449C125.565 81.481 124.675 79.2198 123.141 77.4176C123.141 77.3347 123.068 77.2621 123.027 77.1895C122.643 76.5157 122.228 75.8937 121.792 75.2717C121.228 74.4749 120.611 73.7164 119.946 73.0014C115.423 68.3658 109.364 65.5386 102.904 65.0503C102.904 65.1228 102.966 65.1539 102.977 65.2265C102.972 65.2574 102.972 65.2889 102.977 65.3198C102.153 65.0893 101.314 64.9161 100.467 64.8015C99.0562 64.6041 97.6197 64.7137 96.2556 65.1228C92.3149 65.4937 88.4812 66.6125 84.96 68.4194C81.5716 69.7146 78.491 71.7025 75.9153 74.2558C71.4783 78.729 68.5734 84.4921 67.6174 90.7179C67.2979 91.7881 67.1303 92.8978 67.1196 94.0145C67.1263 94.6425 67.1748 95.2693 67.2648 95.8909C67.2027 96.5459 67.2027 97.2054 67.2648 97.8605C67.3763 99.2512 67.6836 100.619 68.1776 101.924C68.2502 102.308 68.3124 102.702 68.3746 103.075C68.4022 103.073 68.43 103.073 68.4576 103.075ZM110.3 89.5983C110.738 90.5339 111.085 91.5094 111.337 92.5113C111.676 93.6299 111.943 94.7691 112.136 95.922C112.483 97.8481 112.452 99.8236 112.042 101.738C111.648 103.386 110.798 105.687 108.982 106.247C107.167 106.807 105.425 105.449 104.356 104.101C103.799 103.323 103.17 102.597 102.479 101.935C101.73 101.37 100.911 100.907 100.041 100.556C98.496 99.8302 96.3178 98.8972 95.9962 97.0208C95.9279 96.0543 96.0586 95.0841 96.38 94.17C96.576 93.3902 96.8687 92.638 97.2513 91.9308C97.6272 91.2142 98.1898 90.6125 98.8798 90.1892C99.7199 89.7227 100.716 89.6813 101.587 89.277C103.164 88.5409 104.699 87.2659 106.503 87.4836C107.059 87.4377 107.619 87.4975 108.153 87.6598C108.628 87.8286 109.065 88.0894 109.438 88.4275C109.812 88.7655 110.115 89.1739 110.331 89.6294L110.3 89.5983ZM81.7446 70.6586C81.672 69.9018 82.8856 69.9018 82.9582 70.6586C83.176 72.9185 82.1284 75.0747 82.3255 77.3139C82.6025 78.4941 82.9879 79.6463 83.4768 80.7556C83.7449 81.8641 83.9047 82.9959 83.9539 84.1351C83.9894 85.1566 84.1143 86.1729 84.3273 87.1726C84.4311 87.5872 84.597 88.1159 85.126 88.0848C85.5312 88.0282 85.926 87.9129 86.2981 87.7427C87.9106 87.1042 89.2171 85.8726 89.9492 84.301C90.6648 82.7357 90.7167 80.6312 92.5734 79.8848C92.9851 79.7565 93.4189 79.7152 93.8475 79.7634C94.276 79.8115 94.6898 79.9482 95.0627 80.1647C95.4618 80.3485 95.9005 80.4295 96.3389 80.4006C96.7773 80.3716 97.2015 80.2335 97.5728 79.9989C98.3063 79.533 99.0764 79.1274 99.8755 78.786C100.822 78.5131 101.818 78.4565 102.79 78.6201C105.114 78.8689 107.427 79.1281 109.75 79.3665C110.789 79.538 111.853 79.4706 112.862 79.1696C113.581 78.8547 114.247 78.4278 114.832 77.9048C115.955 76.7536 117.309 75.8528 118.805 75.2613C118.951 75.2381 119.1 75.2692 119.225 75.3489C119.349 75.4286 119.44 75.5512 119.479 75.6934C119.519 75.8355 119.505 75.9874 119.44 76.1199C119.375 76.2524 119.263 76.3564 119.127 76.412C117.27 76.9511 116.015 78.6201 114.501 79.6568C112.426 81.0355 110.03 80.6001 107.665 80.3513L104.056 79.9574C102.921 79.7431 101.76 79.6977 100.612 79.8226C98.8798 80.1958 97.6143 81.896 95.7162 81.6057C94.8553 81.4917 93.8907 80.6416 93.0194 80.963C92.1481 81.2843 91.7228 82.6113 91.4635 83.5028C90.9891 85.2225 89.9612 86.7381 88.5385 87.8153C87.439 88.6446 85.0223 90.0234 83.788 88.8519C83.2572 88.1472 82.9729 87.2875 82.9789 86.4054C82.8337 85.3688 82.7922 84.2388 82.6885 83.1607C82.5719 82.0098 82.278 80.8838 81.8172 79.8226C81.3681 78.9 81.1172 77.8936 81.0808 76.8682C81.0808 74.7327 81.9417 72.7526 81.7446 70.6586Z" fill="white"/>
<path d="M122.238 97.7052C121.761 98.7418 122.342 99.8718 122.902 100.815L123.006 100.991H123.203C123.359 100.991 123.525 100.991 123.68 101.054C123.938 101.072 124.195 101.11 124.448 101.168C125.199 99.1275 125.738 97.0154 126.055 94.8647C125.402 95.1861 124.748 95.5075 124.116 95.9014C123.305 96.2754 122.644 96.9107 122.238 97.7052Z" fill="white"/>
<path d="M106.835 88.6964C106.753 88.7126 106.669 88.7126 106.586 88.6964H106.472C106.047 88.6964 105.611 88.8001 105.197 88.8623H105.051C103.941 89.2251 102.977 90.0233 101.877 90.4691C101.02 90.6867 100.181 90.971 99.3673 91.3191C98.7525 91.7531 98.2797 92.359 98.0085 93.0607C97.733 93.7305 97.5212 94.4246 97.3758 95.134C97.2103 95.525 97.1463 95.9514 97.1898 96.3737C97.2334 96.796 97.383 97.2004 97.6247 97.5494C98.662 98.7623 100.415 99.2496 101.774 99.9752C102.508 100.347 103.182 100.825 103.776 101.395C104.311 101.984 104.817 102.6 105.29 103.241C106.14 104.277 107.831 105.926 109.263 104.775C109.897 104.153 110.362 103.378 110.611 102.525C110.891 101.766 111.079 100.976 111.171 100.172C111.325 98.472 111.213 96.7582 110.839 95.0926C110.548 93.4482 110.053 91.8464 109.366 90.3239C109.214 89.948 108.981 89.6101 108.683 89.3343C108.386 89.0584 108.031 88.8512 107.644 88.7275C107.377 88.6868 107.105 88.6764 106.835 88.6964Z" fill="white"/>
<path d="M133.907 86.9445C133.703 85.1191 133.402 83.3058 133.005 81.5124C132.911 81.0148 132.86 80.3928 132.725 79.8538C132.59 79.3147 132.331 78.5165 132.092 77.8634C131.027 74.8789 129.636 72.0211 127.943 69.3421C127.788 69.1036 127.622 68.8548 127.445 68.6268C128.669 67.2445 129.883 65.8312 131.086 64.3868C131.822 63.516 130.63 62.3135 129.789 63.1117C126.463 66.3807 123.144 69.653 119.832 72.9289C120.492 73.6482 121.109 74.4063 121.678 75.1992C123.099 73.6131 124.51 72.0063 125.91 70.4098C126.522 71.519 127.134 72.6386 127.715 73.7686C127.745 73.8452 127.783 73.9182 127.829 73.9863C127.952 74.1716 128.125 74.3188 128.327 74.4113C128.607 74.9815 128.887 75.5516 129.146 76.1322C129.747 77.4434 130.246 78.7984 130.64 80.1855C130.713 80.4343 130.775 80.6935 130.827 80.9526L130.889 81.2844C130.889 81.2844 130.889 81.471 130.889 81.5228C130.972 82.4143 131.273 83.3058 131.428 84.1974C132.593 91.1682 131.669 98.3277 128.773 104.775C125.911 111.354 121.324 117.039 115.496 121.227C113.155 122.919 110.546 124.209 107.779 125.042C102.834 126.478 97.6464 126.885 92.5372 126.24C87.4279 125.595 82.5052 123.91 78.0728 121.289C77.5956 120.978 77.1185 120.657 76.6621 120.325C77.6994 119.433 78.664 118.532 79.6597 117.63C78.7871 117.248 77.9592 116.772 77.1911 116.209C74.6914 118.811 72.1813 121.393 69.6919 124.005C69.599 124.079 69.524 124.173 69.4724 124.279C69.4208 124.386 69.394 124.503 69.394 124.622C69.394 124.74 69.4208 124.858 69.4724 124.964C69.524 125.071 69.599 125.165 69.6919 125.239C69.7727 125.331 69.8724 125.405 69.9842 125.456C70.096 125.507 70.2174 125.533 70.3402 125.533C70.463 125.533 70.5844 125.507 70.6962 125.456C70.808 125.405 70.9076 125.331 70.9884 125.239L75.0648 121.683C81.0795 125.968 88.2388 128.358 95.6228 128.546C96.7534 128.546 97.9047 128.546 99.0664 128.546C99.1018 133.719 99.5807 138.88 100.498 143.971C96.2936 144.172 92.0997 144.465 87.9161 144.852H87.8539H87.7502H87.6776C87.6297 144.874 87.5871 144.906 87.5531 144.946C87.4798 145.035 87.4397 145.146 87.4397 145.262C87.4397 145.377 87.4798 145.489 87.5531 145.578C87.5869 145.631 87.6326 145.676 87.6866 145.708C87.7406 145.74 87.8015 145.76 87.8643 145.765C97.1821 147.562 106.792 147.15 115.922 144.562C116.059 144.544 116.184 144.472 116.269 144.363C116.353 144.253 116.391 144.114 116.373 143.976C116.355 143.839 116.283 143.714 116.173 143.63C116.063 143.545 115.924 143.507 115.787 143.525C111.396 143.484 107.012 143.553 102.635 143.733C102.682 143.614 102.706 143.487 102.707 143.359C102.769 138.29 102.707 133.211 102.365 128.152C106.533 127.734 110.569 126.46 114.22 124.409C120.618 120.554 125.845 115.032 129.343 108.434C132.886 101.853 134.47 94.3964 133.907 86.9445Z" fill="white"/>
</svg>
