<svg width="86" height="159" viewBox="0 0 86 159" fill="none" xmlns="http://www.w3.org/2000/svg">
<g clip-path="url(#clip0)">
<path d="M69.0816 158.406C59.6095 158.406 27.3248 156.542 24.8241 155.861C24.6711 155.431 24.5093 155 24.3473 154.563C24.3473 154.563 22.9441 150.879 22.6652 150.132L21.6847 147.506C21.109 145.952 20.5152 144.336 19.9036 142.76C19.5168 141.764 19.0939 140.761 18.6802 139.784C18.4733 139.286 17.8797 137.885 17.8797 137.885C17.6367 137.3 17.3938 136.714 17.178 136.136C16.8001 135.118 16.4313 134.102 16.0625 133.085C15.3518 131.132 14.6142 129.119 13.8316 127.148C13.022 125.107 12.3024 123.007 11.6008 120.98C11.178 119.755 10.7462 118.489 10.2964 117.243C9.91862 116.2 9.46885 115.163 9.03706 114.16C8.75821 113.527 8.48834 112.894 8.22748 112.254C6.39241 107.737 4.85418 103.045 3.6398 98.298C2.97413 95.6791 2.60532 93.2756 2.51537 90.9326C2.46139 89.5592 2.42541 88.1791 2.38943 86.8055L2.38044 86.5565C2.33546 84.8464 2.28148 83.1026 2.21852 81.3926C2.09258 78.1273 1.93965 75.2054 1.75974 72.4518C1.69678 71.5092 1.57985 70.5531 1.4719 69.6241C1.39094 68.9508 1.30998 68.318 1.24701 67.6851C1.15705 66.6819 1.08509 65.6654 1.01313 64.6824L0.788241 61.6999C0.653309 60.01 0.527374 58.2932 0.446414 56.6101C0.275501 53.0889 0.17655 49.9851 0.122578 47.1306C0.0865963 44.929 0.113582 42.5389 0.212532 39.819C0.25751 38.4725 0.356459 37.1058 0.45541 35.7794C0.509383 35.0388 0.563356 34.305 0.608332 33.5644C0.635318 33.1672 0.644314 32.77 0.662305 32.3728C0.680296 31.8477 0.698287 31.4033 0.725272 30.959C0.743263 30.6559 0.788241 30.3462 0.824223 30.05C0.851209 29.8212 0.887191 29.5922 0.905182 29.37C1.01313 28.2457 1.12107 27.1146 1.22902 25.9903C1.36395 24.5361 1.70577 23.3848 2.29947 22.3682C2.82121 21.4728 3.43291 20.9813 4.26048 20.7725C4.89017 20.6177 5.48387 20.5369 6.02359 20.5369C6.87817 20.5369 7.66077 20.7389 8.33541 21.1361C9.68474 21.9305 10.5573 23.0145 10.9171 24.361L11.16 25.2362C11.3849 26.0105 11.6008 26.778 11.7267 27.5388C11.9786 29.1344 12.1135 30.5483 12.1495 31.861C12.1765 33.0528 12.3564 34.2377 12.5273 35.3755C12.5903 35.7794 12.6532 36.1834 12.7072 36.5941C12.8062 37.3145 12.8871 38.0281 12.9681 38.7485C13.076 39.6911 13.193 40.6673 13.3369 41.6233C13.5528 43.091 13.8136 44.5721 14.0655 46.0063L14.4343 48.1539C14.6503 49.3927 14.8661 50.6719 15.109 51.9241C15.4239 53.5466 15.7836 55.2702 16.2424 57.3573C16.2874 57.5795 16.2605 57.7209 16.1255 57.9094C15.253 59.1482 14.7132 60.4745 14.5154 61.8682C14.2815 63.4907 14.2724 65.1873 14.4614 67.0523L14.5513 67.9948C14.6503 69.0316 14.7581 70.1088 14.9561 71.1659C15.199 72.445 15.4867 73.7377 15.7746 74.9899C16.0356 76.1547 16.2784 77.2521 16.4943 78.3427C16.971 80.7462 17.7086 83.1364 18.4193 85.4523C18.6892 86.3208 18.95 87.1759 19.2019 88.0309C19.7057 89.741 20.1554 91.1211 20.6322 92.36C20.9021 93.0534 21.2618 93.7199 21.6216 94.3663C21.7477 94.5884 21.8736 94.8173 21.9905 95.0396C22.6202 96.2312 23.4298 97.6181 24.6621 98.8703C26.0564 100.284 27.8555 101.159 30.0055 101.456C30.4552 101.516 30.914 101.55 31.3637 101.55C32.4702 101.55 33.5766 101.368 34.6381 101.005C35.8166 100.601 36.959 100.129 38.0564 99.6648C38.2722 99.5706 38.3622 99.5638 38.4162 99.5638C38.4702 99.5638 38.5421 99.5773 38.6231 99.6109C39.5586 99.9678 40.6381 100.19 42.0234 100.311C42.3562 100.338 42.6891 100.352 43.0128 100.352C44.9289 100.352 46.737 99.86 48.5451 98.8502C50.641 97.6787 51.9633 96.1101 52.611 94.0566C52.7549 93.5921 52.9079 93.1274 53.0697 92.6629C53.2767 92.0368 53.4566 91.5116 53.6184 90.9865C53.6545 90.8855 53.6814 90.7845 53.6995 90.6769C53.9603 90.9596 54.2211 91.2356 54.4911 91.5184C55.0308 92.0906 55.5705 92.6629 56.0742 93.2352C56.9648 94.2518 57.6575 95.2347 58.1881 96.2379C58.6649 97.1334 59.3935 97.9076 60.1042 98.6146C60.3291 98.83 60.5361 99.0589 60.7519 99.281C61.3546 99.9206 61.9664 100.567 62.7939 101.099C62.8658 101.159 62.9198 101.2 62.9827 101.227C62.9827 101.227 65.6904 102.782 66.6259 103.314C66.8597 103.442 67.1117 103.57 67.4175 103.603C67.4985 103.617 67.5885 103.617 67.6873 103.617C67.9302 103.617 68.2721 103.576 68.5149 103.401C68.7038 103.267 68.7938 103.092 68.7849 102.91C68.7759 102.694 68.6139 102.486 68.335 102.311L67.5524 101.819C66.8509 101.382 66.1311 100.931 65.4025 100.513C64.638 100.076 63.8464 99.5841 63.2616 98.9578L62.596 98.251C61.9752 97.5844 61.3996 96.9785 60.8598 96.3725C60.6979 96.1975 60.581 96.0023 60.455 95.7935C60.3741 95.6724 60.3022 95.5512 60.2211 95.43L59.6995 94.6625C59.1957 93.9085 58.6919 93.1544 58.1343 92.4677C57.7564 91.9964 57.2977 91.5386 56.9018 91.1346C56.5691 90.798 56.2272 90.448 55.9214 90.0911C55.1838 89.236 54.4821 88.4147 53.9603 87.5596C52.728 85.5331 50.704 84.1395 47.7535 83.2912C44.3082 82.3015 40.6561 81.2109 37.2918 79.6892C36.1043 79.1507 35.1958 78.6726 34.4222 78.1677C31.4627 76.2354 29.133 74.2628 27.2889 72.1286C26.6051 71.3342 26.0745 70.4455 25.6876 69.4221C25.4627 68.8297 25.4987 68.1766 25.8136 67.3754C26.1373 66.5473 26.6772 65.7529 27.5047 64.9045L27.7296 65.0391C28.2064 65.2815 28.6562 65.5105 29.0878 65.7663C31.3458 67.1263 33.9005 68.2035 36.1493 69.1596C37.3097 69.651 38.6141 70.1223 40.0084 70.5599C40.5662 70.7349 41.1418 70.8292 41.7086 70.9167C41.9784 70.9638 42.2482 71.0043 42.5091 71.0581C42.6351 71.0851 42.77 71.0985 42.8959 71.0985C43.4177 71.0985 43.8494 70.8562 44.0024 70.4656C44.4431 69.375 44.857 68.2843 45.2437 67.2677C45.3067 67.0994 45.3517 66.9378 45.3967 66.7627C46.9798 67.0791 48.599 67.2879 50.2362 67.3754C51.2347 67.4293 53.4476 67.5571 53.4476 67.5571C54.7519 67.6312 56.0832 67.712 57.4055 67.7726C59.3036 67.8668 60.9049 68.4055 62.3171 69.4221C63.8554 70.533 65.2406 71.8525 66.554 73.4683C66.8958 73.8925 67.2376 74.3234 67.5795 74.7543C68.2181 75.5689 68.8118 76.3162 69.4235 77.0434C70.2601 78.0196 71.1327 78.9487 72.0143 79.797C72.5989 80.3625 73.2825 80.8607 73.9392 81.3455L74.191 81.534C74.7758 81.9648 75.3964 82.389 76.0981 82.8267C76.8267 83.2845 77.5104 83.8365 78.311 84.6242L78.4549 84.7657C79.8402 86.1256 81.2705 87.5328 82.4398 89.0341C83.5913 90.522 84.1851 92.1109 84.6077 93.4708C85.0667 94.9588 84.9766 96.4938 84.8956 97.9816L84.8416 98.931C84.7517 101.011 84.419 103.058 83.8701 105.017L83.7713 105.3C83.4563 106.424 83.1236 107.589 82.7098 108.713C82.179 110.182 81.6123 111.669 81.0726 113.103C80.353 115.008 79.6513 116.873 78.9946 118.711C78.6168 119.762 78.3379 120.839 78.0681 121.876C78.0681 121.876 77.8163 122.832 77.6993 123.235L77.2405 124.845C76.8627 126.157 76.476 127.511 76.1431 128.843C75.7833 130.264 75.4504 131.719 75.1266 133.125L74.6229 135.3L74.1551 137.246C73.8403 138.552 73.5164 139.858 73.2466 141.158C73.0037 142.316 72.8057 143.494 72.6079 144.638L72.32 146.335C72.266 146.611 72.2211 146.853 72.1581 147.069C71.9332 147.911 71.7354 148.745 71.7264 149.627C71.7264 149.936 71.6454 150.273 71.5734 150.597L71.5194 150.819C71.0606 152.939 70.8988 155.188 71.0247 157.882C71.0337 158.043 71.0247 158.198 71.0157 158.346C70.7908 158.373 70.2601 158.406 69.0816 158.406Z" fill="black"/>
<path d="M73.309 78.3627C72.9043 77.9991 72.5174 77.6356 72.1576 77.2519C71.4379 76.4843 70.5025 75.461 69.7018 74.3972C68.3975 72.6737 66.8593 71.0309 65.51 69.5834C64.0616 68.0349 62.3615 67.052 60.3106 66.5538C59.2131 66.2912 58.0167 66.1229 56.5505 66.0219H56.5326V65.9007C56.5235 65.3688 56.5145 64.9648 56.5414 64.5475C56.6585 62.9586 56.5145 61.2619 56.0917 59.2018C55.8488 58.0168 55.7139 56.933 55.696 55.8961C55.642 52.7116 55.7769 49.2577 56.1007 45.3327C56.1547 44.6999 56.1457 44.0468 56.1367 43.4207C56.1277 43.0436 56.1277 42.6801 56.1277 42.3165C56.1367 41.7509 56.1547 41.1787 56.1817 40.6131C56.1817 40.6131 56.5414 29.2621 56.5595 28.3397C56.5864 27.3702 56.6045 26.4075 56.6225 25.438C56.6585 23.425 56.7034 21.3445 56.8203 19.3046C56.9643 16.7597 57.2612 14.8274 57.7739 13.05C57.8368 12.8345 57.8639 12.6191 57.8908 12.4037C57.9088 12.2219 57.9267 12.0738 57.9628 11.9257C58.1157 11.2524 58.2506 10.5724 58.3855 9.89917C58.7184 8.23623 59.0603 6.51943 59.6539 4.87668C59.9418 4.08224 60.3016 3.34165 60.7333 2.67513C61.498 1.50365 62.8743 0.763076 64.8263 0.487041C65.2671 0.439913 65.7439 0.40625 66.2476 0.40625C66.4094 0.40625 66.5714 0.412983 66.7333 0.419715C67.8847 0.466843 68.7393 0.87753 69.441 1.71237C69.9267 2.30483 70.3226 2.93096 70.6374 3.61768C71.7978 6.17606 71.9237 8.82196 71.9597 11.5285C71.9687 12.3633 71.9777 13.2049 71.9777 14.0398C71.9866 15.8777 71.9956 17.7762 72.0766 19.6412C72.1396 21.082 72.2926 22.516 72.4454 23.9097C72.5084 24.4483 72.5624 24.9868 72.6164 25.5255C72.6614 25.9362 72.7063 26.3402 72.7603 26.7509C72.8592 27.5385 72.9493 28.2724 72.9852 28.9928C73.1651 32.4465 73.39 36.9843 73.498 41.5221C73.5249 42.6464 73.5068 43.7909 73.4889 44.895V45.0163C73.4799 45.905 73.4619 46.8206 73.4709 47.7295C73.4799 48.6384 73.39 49.5675 73.3 50.4696C73.246 51.0554 73.183 51.6546 73.1471 52.2471C73.1021 53.0886 73.0842 53.9437 73.0661 54.765C73.0481 55.3845 73.0392 56.0106 73.0121 56.6299C72.9762 57.3975 72.9402 58.1649 72.9043 58.9325C72.8503 59.9087 72.7963 60.9118 72.7692 61.9015L72.7333 62.9317C72.6523 65.1871 72.5714 67.5165 72.7692 69.8258C72.8053 70.1961 72.8142 70.5731 72.8322 70.9435C72.8503 71.2599 72.8592 71.5358 72.8772 71.8119L73.309 78.3627Z" fill="black"/>
<path d="M31.742 99.7252C30.8064 99.7252 29.8259 99.5838 28.7195 99.2943C27.9818 99.0991 27.3162 98.7086 26.6866 98.0959C25.5172 96.9648 24.7346 95.6789 24.0329 94.4603C22.9355 92.555 22.1079 90.5621 21.5052 88.3673C21.1633 87.1286 20.7855 85.8695 20.4257 84.6577C20.0299 83.3382 19.6252 81.9714 19.2652 80.6249C18.9954 79.6284 18.7886 78.6051 18.5816 77.6222C18.4647 77.0701 18.3567 76.5315 18.2399 75.9929C18.1049 75.3937 17.961 74.7877 17.808 74.1886C17.5201 73.0103 17.2234 71.7917 17.0254 70.6001C16.4767 67.3012 16.4047 64.5879 16.8096 62.0766C16.9985 60.885 17.2324 59.902 17.7721 58.973C18.3298 58.0035 19.2114 57.2898 20.3987 56.8522C20.8485 56.6839 21.4331 56.6301 21.829 56.6098C22.3868 56.5761 22.8995 56.5559 23.3942 56.5559C25.1483 56.5559 26.6415 56.7849 27.9639 57.2562C28.7465 57.5321 29.3312 57.8553 29.763 58.2525C30.6535 59.0672 31.4451 59.8078 32.1558 60.5955C32.5066 60.986 32.6776 61.4505 32.8214 61.9555C32.3357 61.8612 31.8589 61.814 31.3732 61.814C30.3836 61.814 29.3762 62.0093 28.3147 62.4133C26.1018 63.2482 24.7075 64.6351 24.0509 66.6548C23.871 67.2069 23.6821 67.8667 23.6281 68.5332C23.5472 69.4623 23.907 70.324 24.3117 71.1926C25.1574 73.0103 26.7495 74.4578 28.2968 75.8582C29.9698 77.373 31.778 78.733 33.676 79.9045C33.7929 79.9718 33.8379 80.0256 33.829 80.2142L33.82 80.3825C33.7569 81.7829 33.6941 83.2304 33.6491 84.6577C33.613 85.6272 33.5951 86.6034 33.577 87.5729L33.5501 88.879L26.6505 90.0033C26.0299 90.1044 25.4001 90.2054 24.7886 90.3265C23.916 90.5016 23.5382 90.9863 23.763 91.6663C24.1678 92.9051 24.6806 93.9688 25.3102 94.9383C26.0749 96.1166 27.1723 97.1332 28.6476 98.0421C29.853 98.7827 31.2292 98.8837 32.4256 98.8837L32.9024 98.8769C33.1093 98.8702 33.3162 98.8567 33.5231 98.8432C33.685 98.8298 33.8469 98.8163 34.0179 98.8163C34.8905 98.7894 35.655 98.5739 36.3117 98.3383L36.5006 98.4663C36.1047 98.6682 35.691 98.823 35.2862 98.9779C35.0973 99.0519 34.9084 99.1193 34.7194 99.1934C33.775 99.5434 32.8035 99.7252 31.742 99.7252Z" fill="black"/>
<path d="M54.0506 65.9544C53.3129 65.914 52.6113 65.8804 51.9006 65.8602C48.8962 65.7726 45.9726 65.1061 43.148 64.4665L42.6714 64.3588C40.9172 63.9615 39.1631 63.5576 37.418 63.1536L35.3939 62.6891C35.1781 62.164 35.1421 61.7533 35.277 61.3494C35.8617 59.545 36.6624 57.9562 37.7148 56.4884C38.4795 55.4179 39.5948 54.6571 41.115 54.1523C42.5274 53.6876 43.9487 53.4587 45.4599 53.4587C46.8722 53.4587 48.3294 53.654 49.9127 54.0647C50.7222 54.2734 51.298 54.7244 51.9546 55.2429L52.2065 55.4449C53.277 56.2797 53.5828 57.3839 53.8257 58.5486C54.0596 59.646 54.2305 60.7636 54.4013 61.8476L54.5093 62.541C54.5543 62.8237 54.5723 63.1402 54.5633 63.5307C54.5453 64.1905 54.5184 64.8502 54.4823 65.5437L54.4644 65.9813L54.0506 65.9544Z" fill="black"/>
<path d="M42.356 98.6816C41.1955 98.6816 40.1521 98.4325 39.1806 97.9209C37.3006 96.9312 36.2211 95.5308 35.8792 93.6389C35.6633 92.4338 35.6633 91.2017 35.6633 90.0033C35.6633 89.3637 35.6633 88.7241 35.6274 88.0845C35.5734 86.8592 35.6724 85.607 35.7713 84.4018C35.8342 83.6411 35.8972 82.8802 35.9242 82.1262C35.9332 81.7829 35.9332 81.4327 35.9332 81.0625L36.1671 81.1701C36.9587 81.5203 37.6963 81.8434 38.443 82.1531C41.2136 83.2909 43.5973 84.1594 46.206 84.7183C47.2405 84.9404 48.5718 85.2771 49.6692 85.9302C50.236 86.2667 50.6498 86.6168 50.9286 86.9938C50.9286 86.9938 51.5313 87.7883 51.6572 87.9566C51.9182 88.3134 52.0081 88.6231 51.9541 88.9598C51.7293 90.2996 51.3605 91.6258 50.8387 92.8916C50.6678 93.3023 50.4608 93.7129 50.254 94.1102C50.0561 94.4805 49.8672 94.8507 49.7053 95.2278C49.2105 96.3589 48.0411 97.1196 46.8536 97.7659C45.7652 98.3584 44.4339 98.5268 43.1655 98.6413C42.8866 98.6749 42.6168 98.6816 42.356 98.6816ZM37.3905 92.7569C37.3815 93.0465 37.3725 93.3225 37.4175 93.5985L37.4534 93.8207C37.5345 94.3727 37.6244 94.945 37.8943 95.4904C38.3621 96.4329 39.2166 97.0658 40.377 97.3082C40.8897 97.4159 41.3575 97.5169 41.8342 97.5169L43.0667 97.5236C43.6513 97.5236 44.344 97.5102 45.0457 97.4092C46.287 97.2274 47.2855 96.608 48.095 95.524C48.8777 94.4805 49.3544 93.3023 49.5164 92.0298C49.6513 90.993 49.8041 89.9495 49.9391 89.0271C50.0561 88.2731 49.7592 87.9634 48.7877 87.8085C45.5854 87.2901 42.356 87.0208 39.0457 86.7717C38.9198 86.7582 38.8028 86.7582 38.7038 86.7582C37.7682 86.7582 37.6154 87.3036 37.5345 87.5998C37.3095 88.4347 37.4175 91.3767 37.3725 91.7942L37.3905 92.7569Z" fill="black"/>
<path d="M42.1218 69.4018C41.6 69.2806 41.2043 69.1931 40.8264 69.0921C39.3422 68.7016 37.9839 68.1293 36.4997 67.4763L35.4382 67.0185C34.4757 66.601 33.5042 66.1836 32.5686 65.7393C31.6151 65.2815 30.6886 64.8035 29.7171 64.2985L29.1053 63.9821C29.7711 63.6657 30.3198 63.5175 30.8865 63.4906C30.9765 63.4839 31.0754 63.4839 31.1743 63.4839C31.9119 63.4839 32.6676 63.6118 33.4861 63.8811C34.5116 64.2177 35.5821 64.487 36.6076 64.7428L37.1383 64.8776C38.6856 65.268 40.2418 65.6518 41.816 66.0422L43.3001 66.4126L42.1218 69.4018Z" fill="black"/>
<path d="M32.5242 97.1333C31.004 97.1266 29.8526 96.689 29.1059 95.8407C28.0085 94.5817 26.884 93.2352 26.2004 91.7742C26.5782 91.6934 26.929 91.6193 27.2978 91.5655C29.0879 91.2962 30.887 91.0404 32.686 90.7846L33.5407 90.6633C33.5317 90.9663 33.5317 91.202 33.5496 91.4376C33.6036 92.2589 33.6756 93.215 33.7835 94.1643C33.8645 94.925 34.1973 95.6791 34.818 96.5342L35.0969 96.9247C34.7821 97.0189 34.4311 97.0728 34.0264 97.0997C33.6666 97.1266 33.2708 97.1333 32.7581 97.1333H32.5242Z" fill="black"/>
<path d="M42.7613 95.9548C42.1136 95.9548 41.5199 95.8875 40.9532 95.7596C40.1976 95.5846 39.7477 95.1402 39.6489 94.4804C39.5588 93.8813 39.5499 93.2618 39.5409 92.6559L39.5319 92.0904C39.5139 91.4642 39.5139 90.8381 39.5139 90.212V88.4346C41.6639 88.5557 46.2336 89.0742 47.7628 89.3636C47.7178 89.6599 47.6638 89.9696 47.6098 90.2725L47.4478 91.1343C47.3489 91.6797 47.2589 92.1577 47.178 92.6424C47.0611 93.3898 46.7373 94.1034 46.2155 94.7632C45.6937 95.4297 44.9382 95.7865 43.8318 95.8943C43.472 95.9346 43.1032 95.9548 42.7613 95.9548Z" fill="black"/>
</g>
<defs>
<clipPath id="clip0">
<rect width="86" height="158" fill="white" transform="translate(0 0.40625)"/>
</clipPath>
</defs>
</svg>
